<svg xmlns="http://www.w3.org/2000/svg" xmlns:xlink="http://www.w3.org/1999/xlink" width="131.865" height="63.989" viewBox="0 0 131.865 63.989"><defs><clipPath id="a"><rect width="131.865" height="63.989" fill="#fff"/></clipPath></defs><g transform="translate(-686.226 -527.351)"><g transform="translate(686.226 527.351)"><g transform="translate(0 0)" clip-path="url(#a)"><path d="M65.52,50.026c-6.137,0-12.274.062-18.411,0-13.056-.16-26.112-.071-39.167,0A7.807,7.807,0,0,1,0,42.366V8.025A7.828,7.828,0,0,1,7.637.011H123.73A8.042,8.042,0,0,1,129.858,2.4a6.787,6.787,0,0,1,2.007,4.863v35.5a7.286,7.286,0,0,1-6.634,7.125c-.888.089-1.856.125-2.789.125ZM45.093.972A3.6,3.6,0,0,0,43.521.829h-36A6.956,6.956,0,0,0,.792,7.82c.1,11.471,0,22.942,0,34.413a7.419,7.419,0,0,0,.151,1.71,6.956,6.956,0,0,0,6.883,5.29H43.974a1.489,1.489,0,0,0,1.084-.2Zm8.313,36.14c1.67,0,3.2.08,4.734,0a2.652,2.652,0,0,0,1.217-.41,2.141,2.141,0,0,0,.737-2.93,2.259,2.259,0,0,0-.391-.481c-.2-.178-.533-.232-.613-.6a2.069,2.069,0,0,0,.657-2.511,2.38,2.38,0,0,0-2.176-1.336H54.241c-.275,0-.586-.053-.835.258Zm26.529-8.176v8.1a2.509,2.509,0,0,0,1.634-.071c.187-1.6-.062-3.2.169-4.97,1.181,1.55,2.274,2.886,3.251,4.3A1.774,1.774,0,0,0,87.218,37v-8.1a2.657,2.657,0,0,0-1.705.062c-.249,1.514.018,3.117-.249,4.6a46.786,46.786,0,0,1-3.029-3.847,1.774,1.774,0,0,0-2.327-.775ZM92.742,15.364v8.211c1.314,0,2.567.071,3.81,0A4.107,4.107,0,0,0,96.73,15.4a31.637,31.637,0,0,0-4.006,0Zm26.236,8.22a31.209,31.209,0,0,0,3.872,0,4.108,4.108,0,0,0,.737-8.015,16.319,16.319,0,0,0-4.609-.142ZM82.7,20.761a2.433,2.433,0,0,1,.329-.276,2.755,2.755,0,0,0,1.252-3.251,2.665,2.665,0,0,0-2.8-1.906H78.47c-.311,0-.648-.08-.888.178v8.015a3.463,3.463,0,0,0,1.6,0c.24-.828-.062-1.674.2-2.44,1.261-.249,1.261-.249,1.9.686l.533.8c.764,1.14,1.146,1.265,2.664.81Zm5.862,8.078v8.22h6.146a1.786,1.786,0,0,0,0-1.532c-1.412-.187-2.842.08-4.236-.151a2.169,2.169,0,0,1,.124-1.523c1.217-.232,2.451.089,3.65-.2a1.7,1.7,0,0,0-.107-1.407c-1.2-.16-2.416.071-3.606-.142a1.972,1.972,0,0,1,.124-1.63h4.032a2.217,2.217,0,0,0,0-1.585Zm23.092-5.2c2.114-.089,4.165.107,6.217-.116a2.23,2.23,0,0,0,0-1.443c-1.4-.178-2.842.08-4.272-.151a2.207,2.207,0,0,1,.115-1.665h1.776a4.113,4.113,0,0,0,1.83-.178,3.061,3.061,0,0,0-.133-1.443c-1.226-.232-2.487.1-3.686-.2a2.391,2.391,0,0,1,.08-1.5c1.394-.223,2.842.1,4.254-.187a2.626,2.626,0,0,0-.08-1.434c-2.025-.071-4.041-.08-6.128,0ZM91.579,16.86a2.208,2.208,0,0,0-.124-1.452c-1.945-.071-3.926-.08-5.977,0v8.247h3.091a14.973,14.973,0,0,0,3.029-.1,2.152,2.152,0,0,0-.062-1.416c-1.412-.214-2.851.071-4.263-.178a2.935,2.935,0,0,1,0-1.567c1.243-.24,2.5.089,3.7-.2a2.313,2.313,0,0,0-.053-1.469c-1.226-.223-2.487.107-3.686-.2a2.543,2.543,0,0,1,.071-1.478c1.394-.232,2.8.053,4.272-.187M66.613,28.883a3.474,3.474,0,0,0-.115,1.282v3.562a1.709,1.709,0,0,1-1.571,1.835h-.143a1.725,1.725,0,0,1-1.838-1.6v-.107a8.6,8.6,0,0,1-.062-1.069V29.675c0-.276.062-.579-.24-.828a2.437,2.437,0,0,0-1.51.107,46.215,46.215,0,0,0,.08,5.655,2.935,2.935,0,0,0,2.664,2.574,4.966,4.966,0,0,0,1.918,0,2.818,2.818,0,0,0,2.327-2.137c.5-2,.187-4.043.249-6.065a2.9,2.9,0,0,0-1.759-.1m-5.329-5.344a1.127,1.127,0,0,0-.2-.766c-.888-2.182-1.847-4.364-2.762-6.546-.231-.561-.453-.989-1.2-.989a1.271,1.271,0,0,0-1.35.944c-.888,2.191-1.847,4.364-2.762,6.546-.107.249-.338.49-.187.739,1.714.748,2-.659,2.46-1.648H58.62c.471.534.48,1.256.959,1.781a5.085,5.085,0,0,0,1.643,0ZM108.3,29.675a4.563,4.563,0,0,0-4.3-.766,2.324,2.324,0,0,0-1.652,2.271,2.129,2.129,0,0,0,1.5,2.137c.426.169.888.276,1.332.427a8.058,8.058,0,0,1,1.1.4.7.7,0,0,1,.471.659.756.756,0,0,1-.6.686,2.251,2.251,0,0,1-1.581-.089c-.488-.2-.959-.454-1.536-.721-.293.419-.773.677-.888,1.265a5.015,5.015,0,0,0,4.13,1.184,2.374,2.374,0,0,0,2.283-2.155c.133-1.336-.346-2.084-1.776-2.6-.639-.24-1.3-.4-1.945-.623-.382-.134-.737-.356-.648-.891s.5-.588.888-.632a3.241,3.241,0,0,1,1.35.294c.329.116.577.436.986.365a4,4,0,0,0,.817-1.274Zm-33.039,0a4.653,4.653,0,0,0-4.343-.766,2.314,2.314,0,0,0-1.6,2.316,2.083,2.083,0,0,0,1.51,2.129c.533.2,1.092.347,1.634.508,1,.312,1.323.6,1.2,1.113s-.782.757-1.652.6a3.623,3.623,0,0,1-1.2-.454c-.249-.134-.444-.374-.8-.383a3.72,3.72,0,0,0-.888,1.113c.888,1.389,3.908,1.71,5.16,1a2.415,2.415,0,0,0,1.208-2.173,2.173,2.173,0,0,0-1.323-2.048,13.38,13.38,0,0,0-1.83-.615,3.2,3.2,0,0,1-.888-.356.642.642,0,0,1-.323-.847.394.394,0,0,1,.021-.044.62.62,0,0,1,.364-.321,1.631,1.631,0,0,1,1.048-.089,7.222,7.222,0,0,1,1.7.695,4.128,4.128,0,0,0,.888-1.345ZM96.3,34.743c-.329.107-.471.374-.648.588a.812.812,0,0,0-.293.561c1.039,1.407,3.943,1.576,5.054.98a2.433,2.433,0,0,0,1.359-2.28,2.084,2.084,0,0,0-1.35-2.013c-.462-.2-.95-.33-1.421-.49s-.826-.267-1.217-.436a.642.642,0,0,1-.417-.686.766.766,0,0,1,.551-.606,1.937,1.937,0,0,1,1.057,0,12.974,12.974,0,0,1,1.59.65,3.185,3.185,0,0,0,.808-1.256,4.262,4.262,0,0,0-4.441-.784,2.334,2.334,0,0,0-1.421,2.333,2.065,2.065,0,0,0,1.51,2.031c.373.142.755.249,1.128.374s.888.276,1.314.445a.641.641,0,0,1,.444.668.739.739,0,0,1-.586.695,2.276,2.276,0,0,1-1.572-.089c-.488-.2-.959-.445-1.412-.668ZM68.6,16.468a4.476,4.476,0,0,0-6.341,0l-.115.116a4.462,4.462,0,0,0,.488,6.234h.053a4.207,4.207,0,0,0,5.933-.659A3.189,3.189,0,0,0,67.6,21.17c-1.714,1.06-2.931,1.1-3.846.142a2.847,2.847,0,0,1-.266-3.491,2.38,2.38,0,0,1,1.288-.891c1.075-.347,1.927.24,2.771.73A4.28,4.28,0,0,0,68.6,16.468m7.869,0a4.5,4.5,0,0,0-6.359,0,4.462,4.462,0,0,0,.275,6.234,4.336,4.336,0,0,0,6.128-.417l.009-.011a3.416,3.416,0,0,0-1.03-1.069c-1.679,1.069-2.966,1.069-3.881.178a2.847,2.847,0,0,1-.284-3.393,2.432,2.432,0,0,1,1.341-1.06c1.075-.338,1.91.285,2.762.748a4.992,4.992,0,0,0,1.066-1.22Zm34.256-1.078h-6.688a2.478,2.478,0,0,0,0,1.523c.782.24,1.6-.071,2.469.294v6.3a2.661,2.661,0,0,0,1.705,0c.142-2.137-.071-4.257.115-6.314.888-.33,1.679.062,2.389-.312a2.817,2.817,0,0,0,0-1.487ZM76.685,28.874a39.2,39.2,0,0,0,.115,8.2,2.657,2.657,0,0,0,1.474-.1V28.91a2.808,2.808,0,0,0-1.581,0Zm26.44-5.344v-8.1a3.194,3.194,0,0,0-1.661.045v8.1a4.1,4.1,0,0,0,1.679,0Z" transform="translate(0 0)" fill="#fff"/><path d="M43.242,60.748a19.073,19.073,0,0,1,4.672.089,1.961,1.961,0,0,1,1.252,3.153c-.115.178-.337.276-.346.525s.3.294.453.436a2.026,2.026,0,0,1,.349,2.837l0,0a2.076,2.076,0,0,1-.888.65,2.427,2.427,0,0,1-.613.187,25.3,25.3,0,0,1-4.858.071Zm1.776,6.43h2.247a.889.889,0,0,0,.941-.819.828.828,0,0,0-.759-.891h0a5.855,5.855,0,0,0-2.487.062,2.782,2.782,0,0,0,.089,1.639Zm-.062-3.3a4.21,4.21,0,0,0,2.229-.062.712.712,0,0,0,.577-.686.642.642,0,0,0-.382-.7A3.314,3.314,0,0,0,44.9,62.36a3.669,3.669,0,0,0,.053,1.523" transform="translate(-4.837 -6.635)" fill="#fff"/><path d="M24.512,60.731a22.426,22.426,0,0,1,4.441.071,1.983,1.983,0,0,1,1.261,3.384c-.089.116-.222.187-.2.374s.32.249.48.383a2.106,2.106,0,0,1,.214,2.965h0a2.127,2.127,0,0,1-1.1.668,22.833,22.833,0,0,1-5.054.116ZM26.2,65.478a3.084,3.084,0,0,0,.115,1.6,12.9,12.9,0,0,0,2.114.089.888.888,0,0,0,1.066-.659.374.374,0,0,0,0-.089c.071-.454-.329-.891-.968-.935a10.4,10.4,0,0,0-2.354,0Zm.053-1.621a3.779,3.779,0,0,0,2.087,0,.765.765,0,0,0,.719-.793.783.783,0,0,0-.728-.784,3.748,3.748,0,0,0-2.078,0,2.774,2.774,0,0,0,0,1.523Z" transform="translate(-2.742 -6.636)" fill="#fff"/><path d="M39.4,64.587c.355.321.888.57,1.066,1.087a2.113,2.113,0,0,1-1.09,2.778h0a1.935,1.935,0,0,1-.444.134,18.732,18.732,0,0,1-4.991,0V60.721a18.118,18.118,0,0,1,4.707.178,1.923,1.923,0,0,1,1.513,2.259l0,.012a1.872,1.872,0,0,1-.471.891c-.107.16-.293.249-.284.525m-3.792,2.449a7.966,7.966,0,0,0,2.345.107.8.8,0,0,0,.888-.686.819.819,0,0,0-.693-.891h-.124a6.98,6.98,0,0,0-2.434,0,2.167,2.167,0,0,0,0,1.532Zm0-3.135a4.628,4.628,0,0,0,2.1,0,.756.756,0,0,0,.7-.807v0a.747.747,0,0,0-.657-.739,3.585,3.585,0,0,0-2.247.053,2.993,2.993,0,0,0,.107,1.532Z" transform="translate(-3.796 -6.635)" fill="#fff"/><path d="M61.475,65.966l1.687,2.583c-1.5.41-1.776.33-2.46-.713l-.542-.8c-.639-.944-.639-.944-1.883-.686-.231.712,0,1.487-.178,2.244a2.1,2.1,0,0,1-1.608,0V60.97s.062-.134.107-.142a12.236,12.236,0,0,1,4.689.071,2.6,2.6,0,0,1,1.776,3.215,2.663,2.663,0,0,1-.657,1.1c-.284.267-.577.472-.933.757m-3.206-1.372a4.973,4.973,0,0,0,2.371-.116,1.041,1.041,0,0,0,.711-1.087.961.961,0,0,0-.853-1,4.231,4.231,0,0,0-2.283.089,7.636,7.636,0,0,0,0,2.111Z" transform="translate(-6.319 -6.634)" fill="#fff"/><path d="M94.92,67.765c-1.776.944-3.073.891-3.979-.214a3.321,3.321,0,0,1,0-3.919c.888-1.069,2.283-1.167,3.926-.276.364-.766,1-.579,1.581-.5a.7.7,0,0,1,.222.632v4.533a2.554,2.554,0,0,1-2.336,2.752,5.7,5.7,0,0,1-3.553-.552c-.071-.454.258-.766.417-1.176,1.155.267,2.265.819,3.348,0,.284-.214.329-.41.373-1.282M93.5,67.053a1.462,1.462,0,0,0,.133-2.921h-.044a1.46,1.46,0,0,0-.424,2.89q.065.009.131.013h.249Z" transform="translate(-10.1 -6.866)" fill="#fff"/><path d="M106.754,68.652a.463.463,0,0,1,0-.481c1.048-2.476,2.1-4.952,3.135-7.392,1.545-.33,1.6-.3,2.167,1.024.826,1.95,1.661,3.9,2.478,5.851.124.285.346.552.231.891-1.3.392-1.519.33-1.963-.8a1.12,1.12,0,0,0-1.261-.891c-.817.08-1.643-.062-2.425.08-.542.5-.382,1.416-1.075,1.71a1.622,1.622,0,0,1-1.288.009m3.97-5.735a7.6,7.6,0,0,0-.888,2.378,5.052,5.052,0,0,0,1.865,0,7.608,7.608,0,0,0-.941-2.369Z" transform="translate(-11.933 -6.63)" fill="#fff"/><path d="M84.042,68.868a2.81,2.81,0,0,1-1.386.062,22.306,22.306,0,0,1,0-6.056c.639-.089,1.314-.338,1.776.517a2.554,2.554,0,0,1,1.776-.65,1.778,1.778,0,0,1,1.776,1.4,19.545,19.545,0,0,1,.169,4.667,2.475,2.475,0,0,1-1.581.1,7.86,7.86,0,0,1-.142-2.28,8.261,8.261,0,0,0-.08-1.389.952.952,0,0,0-.986-.891,1,1,0,0,0-1.1.891,12.215,12.215,0,0,0-.062,1.612v1.612a1.784,1.784,0,0,1-.16.41" transform="translate(-9.222 -6.864)" fill="#fff"/><path d="M69.057,65.378c-.2-1.176-.675-1.318-2.807-.944a1.5,1.5,0,0,1-.426-1.015,3.89,3.89,0,0,1,4.032-.2,2,2,0,0,1,.888,1.425,34.937,34.937,0,0,1,.062,4.2c-.737.16-1.359.338-1.865-.294a2.93,2.93,0,0,1-1.954.508,1.9,1.9,0,0,1-1.776-1.692,1.869,1.869,0,0,1,1.59-2.031,6.2,6.2,0,0,1,2.256.036m.124,1.238A2.156,2.156,0,0,0,67.6,66.3c-.444.143-.773.4-.711.891s.426.623.888.668c.764.071,1.217-.321,1.439-1.282Z" transform="translate(-7.293 -6.866)" fill="#fff"/><path d="M73.452,61.178a2.657,2.657,0,0,1,1.5,0c.258.427.071.891.258,1.274.355.294.79.08,1.2.267.3.383.142.828.107,1.22-.417.3-.888.089-1.27.312a6.731,6.731,0,0,0-.089,2.494c0,.57.178.6,1.243.615.249,1.024.178,1.247-.462,1.452a1.846,1.846,0,0,1-2.38-.891,7.191,7.191,0,0,1-.213-2.137c0-.659.275-1.407-.568-1.888a.83.83,0,0,1,0-1.078c.71-.365.515-.98.675-1.639" transform="translate(-8.118 -6.681)" fill="#fff"/><path d="M119.545,62.14a2.173,2.173,0,0,1,1.261,0c.346.552,0,1.211.284,1.781.551.338,1.261,0,1.856.312a1.883,1.883,0,0,1,.071,1.149c-.586.427-1.306,0-1.945.374-.249.534,0,1.167-.2,1.781a1.683,1.683,0,0,1-1.314.08c-.337-.579,0-1.229-.266-1.826-.542-.427-1.252,0-1.865-.321a1.517,1.517,0,0,1-.071-1.229c.586-.383,1.288,0,1.883-.312.346-.534-.018-1.2.3-1.79" transform="translate(-13.116 -6.788)" fill="#fff"/><path d="M80.332,62.919a55.237,55.237,0,0,1,0,5.816,1.985,1.985,0,0,1-1.59.16,57.276,57.276,0,0,1,0-5.922,2.574,2.574,0,0,1,1.59-.053" transform="translate(-8.799 -6.873)" fill="#fff"/><path d="M101.025,62.919a3.151,3.151,0,0,1,0,1.674,2.432,2.432,0,0,1-1.59,0,3.716,3.716,0,0,1-.08-1.6,2.812,2.812,0,0,1,1.67-.071" transform="translate(-11.107 -6.874)" fill="#fff"/><path d="M101.022,69.415a2.965,2.965,0,0,1-1.625,0,2.739,2.739,0,0,1,0-1.6,2.57,2.57,0,0,1,1.572-.062,3.3,3.3,0,0,1,.053,1.665" transform="translate(-11.104 -7.402)" fill="#fff"/><path d="M80.328,61.758a3.465,3.465,0,0,1-1.6.053,1.6,1.6,0,0,1-.062-1.336,2.662,2.662,0,0,1,1.608,0,1.653,1.653,0,0,1,.053,1.282" transform="translate(-8.786 -6.603)" fill="#fff"/><path d="M25.624,4.381c0,2.137,0,2.137,1.865,3.491,1.474,1.078,2.966,2.146,4.441,3.233A5.576,5.576,0,0,1,33.538,18.8a5.447,5.447,0,0,1-.329.463q-1.528,2.191-3.162,4.382c-.187.249-.293.7-.764.561-.249-.2-.107-.392,0-.6a2.988,2.988,0,0,0-1.208-3.936c-1.412-1.042-2.851-2.066-4.263-3.1a5.6,5.6,0,0,1-1.35-8.3q1.226-1.693,2.4-3.331c.133-.249.266-.579.764-.561" transform="translate(-2.371 -0.479)" fill="#fff"/><path d="M21.654,18.681c.409.16.6.312.524.623-.169.65.231,1,.693,1.327,1.1.8,2.2,1.594,3.3,2.414a3.862,3.862,0,0,1,1.289,5.3l-.028.045a2.734,2.734,0,0,1-.3.419c-.6.891-1.243,1.728-1.83,2.538-.444-.08-.622-.258-.568-.543.133-.739-.311-1.122-.835-1.487-1.11-.784-2.158-1.559-3.215-2.4a3.854,3.854,0,0,1-1.2-5.307l.023-.037.249-.347c.6-.819,1.226-1.674,1.9-2.547" transform="translate(-2.113 -2.044)" fill="#fff"/><path d="M31.643,41a27.581,27.581,0,0,1,5.489.151,2.367,2.367,0,0,1,2.026,2.664v.008a2.16,2.16,0,0,1-.187.659,4.9,4.9,0,0,1-.8,1.015c.08.321.409.356.622.525a2.445,2.445,0,0,1,.435,3.42,2.372,2.372,0,0,1-.666.6,4.174,4.174,0,0,1-1.616.525,7.106,7.106,0,0,1-1.066.053H31.74a57.972,57.972,0,0,1-.1-9.618m2.078,7.606a13.285,13.285,0,0,0,2.913.107c.435-.107.817-.3.888-.8a.892.892,0,0,0-.462-.989,5.491,5.491,0,0,0-3.384,0,5.128,5.128,0,0,0,0,1.648Zm0-3.8a8.322,8.322,0,0,0,2.4,0,.926.926,0,0,0,0-1.852,5.968,5.968,0,0,0-2.416.071,4.019,4.019,0,0,0,0,1.781Z" transform="translate(-3.522 -4.478)" fill="#fff"/><path d="M27.975,45.7A2.378,2.378,0,0,1,29.5,48.065a2.3,2.3,0,0,1-1.421,2.209,3.848,3.848,0,0,1-1.128.338,44.265,44.265,0,0,1-5.542.062v-9.44c.169-.24.426-.214.675-.214h3.766a4.6,4.6,0,0,1,1.474.267,2.379,2.379,0,0,1,1.563,2.957,2.48,2.48,0,0,1-.586.971c-.151.125-.293.178-.329.481m-4.441,3.01a12.38,12.38,0,0,0,3.037,0,.936.936,0,0,0,0-1.852,9.63,9.63,0,0,0-2.949-.053,4.853,4.853,0,0,0,0,1.959Zm0-3.892a8.678,8.678,0,0,0,2.354,0,.935.935,0,0,0,.08-1.861h-.089a6.662,6.662,0,0,0-2.38.071,4.807,4.807,0,0,0,.062,1.781Z" transform="translate(-2.395 -4.488)" fill="#fff"/><path d="M11.242,50.635V41.177a4.062,4.062,0,0,1,1.732-.169h2.9a2.8,2.8,0,0,1,2.744,1.55,2.427,2.427,0,0,1-.888,3.019,2.671,2.671,0,0,1,1.616,2.28,2.378,2.378,0,0,1-1.492,2.4,3.361,3.361,0,0,1-1.341.338c-1.714.062-3.49.045-5.267.045m2.149-1.95a13.606,13.606,0,0,0,2.824,0,.96.96,0,0,0,.968-.891.838.838,0,0,0-.533-.962,7.23,7.23,0,0,0-3.3-.125,4.916,4.916,0,0,0,0,1.906Zm0-3.874a8.874,8.874,0,0,0,2.38,0,.944.944,0,0,0,.888-.891.89.89,0,0,0-.844-.891,6.159,6.159,0,0,0-2.451.071,4.3,4.3,0,0,0,0,1.781Z" transform="translate(-1.257 -4.483)" fill="#fff"/><path d="M16.714,34.011H32.8a3.128,3.128,0,0,1,.568,1.915c-1.332.2-2.664,0-4.05.134-.515.775-.515,1.781-.995,2.538H21.368c-.453-.766-.506-1.665-.888-2.476-1.332-.321-2.744.08-4.148-.24a5.888,5.888,0,0,1,.382-1.87" transform="translate(-1.827 -3.721)" fill="#fff"/><path d="M41.5,49.726c0,.151,0,.276-.213.285a.222.222,0,0,1-.249-.187.084.084,0,0,1,0-.062.367.367,0,0,1,.169-.223c.142-.062.249.027.293.187" transform="translate(-4.59 -5.418)" fill="#fff"/><path d="M62.158,39.591a3.118,3.118,0,0,1,0-1.665,7.333,7.333,0,0,1,2.416-.053.891.891,0,0,1,.08,1.781h-.1c-.773-.036-1.563-.062-2.4-.062" transform="translate(-6.94 -4.135)" fill="#fff"/><path d="M62.128,35.807a2.738,2.738,0,0,1,0-1.559,5.485,5.485,0,0,1,2.087,0,.811.811,0,0,1,.062,1.6,5.648,5.648,0,0,1-2.149-.045" transform="translate(-6.936 -3.736)" fill="#fff"/><path d="M106.521,19.142c1.279-.116,2.531-.249,3.331.989a2.465,2.465,0,0,1,0,2.85c-.79,1.211-2.025,1.167-3.259,1.06a14.889,14.889,0,0,1-.071-4.9" transform="translate(-11.896 -2.087)" fill="#fff"/><path d="M136.07,19.151c1.279-.134,2.531-.258,3.331.989a2.465,2.465,0,0,1,0,2.85c-.8,1.211-2.034,1.158-3.26,1.051a14.555,14.555,0,0,1-.071-4.889" transform="translate(-15.2 -2.086)" fill="#fff"/><path d="M89.354,21.393a5.352,5.352,0,0,1-.062-2.164,4.992,4.992,0,0,1,2.265-.089.987.987,0,0,1,.888,1.033,1.033,1.033,0,0,1-.755,1.14,5.138,5.138,0,0,1-2.336.08" transform="translate(-9.978 -2.084)" fill="#fff"/><path d="M65,22.093a.64.64,0,0,1-.56.214,3.832,3.832,0,0,1-1.35-.107,7.476,7.476,0,0,1,.888-2.289A8.156,8.156,0,0,1,65,22.093" transform="translate(-7.057 -2.178)" fill="#fff"/></g></g></g></svg>