<svg xmlns="http://www.w3.org/2000/svg" xmlns:xlink="http://www.w3.org/1999/xlink" width="175.02" height="53.564" viewBox="0 0 175.02 53.564"><defs><clipPath id="a"><rect width="175.02" height="53.564" fill="none"/></clipPath></defs><g clip-path="url(#a)"><path d="M5.926,58.057C4.835,29.8,28.168,5.03,57.409,6.113a2.3,2.3,0,0,1,.141,1.375q0,23.817-.023,47.629c0,2.166-.781,2.942-2.994,2.942H5.926ZM16.419,48.5c.575-.2.654.4.94.633,1.909,1.547,5.484.888,6.3-1.2a3.875,3.875,0,0,0-.849-4.083,4.946,4.946,0,0,0-5.153-.289A3.551,3.551,0,0,0,16.3,47.464c.076.339.466.659.135,1.042a13.565,13.565,0,0,1-2.31.289,2.727,2.727,0,0,1-2.864-2.726,2.764,2.764,0,0,1,2.742-3,7.162,7.162,0,0,1,1.8.187.923.923,0,0,0,.344-.073,1.5,1.5,0,0,0-.122-1.193c-2.255-.357-4.518-.62-6.064,1.638a4.525,4.525,0,0,0,.193,4.906c1.154,1.484,3.789,2.013,6.15,1.208Zm5.768-16.157c-1.742-.018-3.32.4-4.166,2.07a4.4,4.4,0,0,0,.2,4.578c1.083,1.674,4.018,2.3,6.137,1.388,1.914-.82,2.731-2.705,2.218-5.124-.393-1.771-2.083-2.88-4.4-2.911ZM28.4,40.411a3.563,3.563,0,0,0,1.922-.068l1.588-5.13,1.614,5.208h1.9c.521-2.247,1.042-4.442,1.547-6.668a3.173,3.173,0,0,0-1.562.055c-.482,1.495-.466,3.125-1.143,4.856l-1.357-4.976a6.79,6.79,0,0,0-2.062.138c-.536,1.5-.664,3.091-1.518,4.729-.344-1.781-.633-3.286-.922-4.783a2.279,2.279,0,0,0-1.609.109Zm19.787-2.156-.26.094c-.732-1.143-1.539-2.245-2.169-3.437a1.964,1.964,0,0,0-2.69-1.075v6.543a1.5,1.5,0,0,0,1.471-.2V35.718c.976,1.461,1.8,2.534,2.442,3.7a1.854,1.854,0,0,0,2.57.935v-6.58a2.005,2.005,0,0,0-1.351.073ZM31.977,49.8a14.739,14.739,0,0,1,.172-4.578c.841,1.263,1.643,2.3,2.255,3.432a2.079,2.079,0,0,0,2.731,1.073V43.173a1.551,1.551,0,0,0-1.437.138A26.172,26.172,0,0,1,35.641,48c-.924-1.424-1.75-2.526-2.388-3.729a1.972,1.972,0,0,0-2.773-1.005c.3,2.148.013,4.33.1,6.543Zm10.129-.141a19.326,19.326,0,0,1,.042-4.544c.937,1.4,1.76,2.463,2.4,3.627a1.976,1.976,0,0,0,2.721.966,58.421,58.421,0,0,1-.016-6.442,1.531,1.531,0,0,0-1.492.089v4.687c-.945-1.453-1.781-2.562-2.427-3.773A1.954,1.954,0,0,0,40.671,43.2c0,1.109-.029,2.185,0,3.26a16.871,16.871,0,0,0,.055,3.32,1.943,1.943,0,0,0,1.388-.122ZM54.065,44.41c.062-.57.3-1.1-.521-1.232a6.742,6.742,0,0,0-3.713.167,3.336,3.336,0,0,0-2.138,3.385,3.208,3.208,0,0,0,2.617,3.138,7.507,7.507,0,0,0,4.072-.229V46.1a1.822,1.822,0,0,0-1.43.036,14.656,14.656,0,0,1-.174,2.6,2.544,2.544,0,0,1-3.046-.7,2.231,2.231,0,0,1-.167-2.682c1.13-1.76,2.81-1.344,4.507-.953ZM26.329,46.233c.615,1.018,1.2,1.877,1.666,2.8.521,1.013,1.216.9,2.146.667l-2.1-2.922c1.263-.331,1.867-1.068,1.643-2.231-.234-1.211-1.221-1.453-2.286-1.466H24.46v6.648a1.631,1.631,0,0,0,1.323-.031c.208-1.838-.109-3.7.284-5.645.818.2,1.958-.427,2.14.877.169,1.143-.851,1.2-1.87,1.31ZM37.547,33.69v6.8c1.4,0,2.731-.021,4.062,0,.838.018.9-.4.721-1.138H39.205a2.724,2.724,0,0,1,.13-1.823h2.914c-.75-1.734-2.258-.508-3.164-1.2a3.3,3.3,0,0,1,.107-1.45c1.042-.349,2.151.167,3.166-.214.107-.594.055-1-.651-.989-1.362.026-2.734.016-4.153.016Zm16.4,1.042c-.128-1.023-.573-1.255-2.047-1.068a1.743,1.743,0,0,0-1.638,1.075,1.706,1.706,0,0,0,.521,1.89c.539.5,1.1.979,1.643,1.476.292.26.588.57.372,1.008-.193.393-.6.44-.989.521-.521.094-.976-.344-1.5-.133-.065.417-.156.766.328,1.008a3.408,3.408,0,0,0,3.494-.646c.638-.864.325-1.742-.958-2.846-.565-.487-1.594-.841-1.37-1.7.307-1.094,1.443-.365,2.161-.586Zm-14.1,8.3c-.708.1-1.216-.1-1.823.214a30.857,30.857,0,0,1,0,6.523,2.776,2.776,0,0,0,1.768-.076,61.432,61.432,0,0,1,.055-6.661" transform="translate(-4.355 -4.496)" fill="#ed3026"/><path d="M0,44.38V31.694Q.016,17.373.034,3.052C.034.75.771,0,3.039,0H45.221c.432,0,.864,0,1.3.042C20.839,4.148,5.708,19.253,0,44.38" fill="#ed3026"/><path d="M329.55,116.87h2.216l4.5,13.431.245-.044v-13.34h2.534v22.406h-2.2q-2.273-6.715-4.552-13.428l-.26.047V139.31h-2.468Z" transform="translate(-243.74 -86.439)" fill="#fff"/><path d="M590.65,24.073V1.568a21.161,21.161,0,0,1,4.794.143,5.773,5.773,0,0,1,4.426,4,20.653,20.653,0,0,1-.12,14.358,5.737,5.737,0,0,1-6.018,4.013c-1-.039-1.987-.005-3.083-.005m2.8-19.714V21.375c2.273-.068,3.458-.726,3.994-2.6a21.514,21.514,0,0,0,0-12.032C596.9,4.88,595.558,4.187,593.452,4.359Z" transform="translate(-436.854 -1.112)" fill="#fff"/><path d="M285.3,127.114a21.676,21.676,0,0,1-1.284,7.65,6.669,6.669,0,0,1-1.471,2.427,3.86,3.86,0,0,1-6.265-.323,11.31,11.31,0,0,1-2.143-5.64,23.98,23.98,0,0,1,.831-11.553c.781-2.159,1.872-4.083,4.528-4.218,2.008-.1,3.645,1.416,4.653,4.247a20.311,20.311,0,0,1,.732,2.627,26.562,26.562,0,0,1,.419,4.783m-2.906-.081a21.451,21.451,0,0,0-.794-6.674c-.357-1.029-.781-2.161-2.127-2.12-1.26.036-1.6,1.151-1.963,2.13a3.313,3.313,0,0,0-.151.5,29.256,29.256,0,0,0,.018,12.368c.26,1.187.693,2.552,2.133,2.6,1.5.065,1.857-1.362,2.213-2.51a22.638,22.638,0,0,0,.672-6.3" transform="translate(-202.511 -85.39)" fill="#fff"/><path d="M579.69,126.978c.133-2.976.31-6.01,1.786-8.772,1.154-2.156,2.864-3.062,4.856-2.627a4.56,4.56,0,0,1,2.838,2.32,13.276,13.276,0,0,1,1.781,5.783c.4,3.783.4,7.551-1.081,11.142-.818,1.982-1.971,3.809-4.447,3.794-2.526-.013-3.645-1.888-4.5-3.906a21.6,21.6,0,0,1-1.237-7.733m2.864-.065a29.677,29.677,0,0,0,.615,6.083c.518,1.989,1.325,3.057,2.343,2.9,1.6-.26,1.906-1.667,2.177-2.909a28.189,28.189,0,0,0,0-11.861,6.133,6.133,0,0,0-.708-1.8c-.878-1.5-2.258-1.5-3.125,0a6.98,6.98,0,0,0-.581,1.437,26.738,26.738,0,0,0-.719,6.148Z" transform="translate(-428.748 -85.405)" fill="#fff"/><path d="M456.76,1.655c3.445-.583,5.757.214,6.981,2.393a7.217,7.217,0,0,1-1.148,8.538c2.544,3.338,2.679,7.465,3.708,11.361a11.647,11.647,0,0,1-2.745.062c-1.331-3.336-.781-7.358-3.51-10.077l-.615.164v9.858H456.76Zm2.752,9.522c1.7-.161,2.271-1.042,2.343-3.244.063-1.885-.64-3.82-2.343-3.572Z" transform="translate(-337.827 -1.087)" fill="#fff"/><path d="M501.58,1.635c2.929-.148,5.82-.284,7.155,2.849,1.237,2.9,1.125,5.754-1.3,8.168,2.515,3.367,2.7,7.473,3.718,11.368a12.153,12.153,0,0,1-2.773.07c-1.19-3.166-.911-6.752-2.971-9.606a.864.864,0,0,0-1.081-.26v9.822H501.58Zm2.778,9.634c1.75-.247,2.38-1.234,2.344-3.484-.034-2.291-.656-3.2-2.344-3.356Z" transform="translate(-370.976 -1.164)" fill="#fff"/><path d="M419.45,116.777c3.768-.521,5.882.247,7.062,2.521a7.262,7.262,0,0,1-1.229,8.405c2.541,3.351,2.729,7.457,3.726,11.423h-2.76c-1.242-3.151-.867-6.872-3.138-9.712a.76.76,0,0,0-.95-.146v9.858H419.45Zm2.744,2.685v6.817c1.661-.117,2.315-1,2.344-3.083.021-2.653-.549-3.58-2.344-3.734" transform="translate(-310.232 -86.254)" fill="#fff"/><path d="M291.9,24.063h-2.8c-1.042-3.195-.969-6.674-2.88-9.54a1,1,0,0,0-1.167-.339v9.853H282.33V1.719c3.664-.521,5.911.294,7.08,2.531a7.291,7.291,0,0,1-1.25,8.405c2.578,3.341,2.659,7.476,3.742,11.407M285.059,11.27c1.734-.2,2.343-1.109,2.383-3.286.029-2.4-.6-3.369-2.383-3.6Z" transform="translate(-208.816 -1.159)" fill="#fff"/><path d="M645.12,139.2h-2.76c-1.143-3.158-.935-6.77-3.015-9.634a.851.851,0,0,0-1.041-.242v9.866h-2.7V116.8c2.726-.148,5.411-.362,7,2.492a7.324,7.324,0,0,1-1.177,8.515c2.544,3.325,2.7,7.444,3.7,11.4m-6.77-12.847c1.667-.1,2.359-1.117,2.344-3.343,0-2.359-.661-3.338-2.344-3.461Z" transform="translate(-470.1 -86.33)" fill="#fff"/><path d="M460.362,138.887a10,10,0,0,1-2.622.026c1.341-7.551,2.672-15.042,4.01-22.583h2.864c1.318,7.476,2.638,14.962,3.971,22.505a10.434,10.434,0,0,1-2.6.146c-.26-1.669-.521-3.242-.781-4.9h-3.992q-.414,2.356-.846,4.807m2.971-16.087h-.352c-.432,2.768-.867,5.536-1.32,8.421a13.977,13.977,0,0,0,3.013-.107C464.218,128.305,463.776,125.553,463.333,122.8Z" transform="translate(-338.552 -86.04)" fill="#fff"/><path d="M236.54,1.58c1.758.1,3.4-.164,5.025.3,2.953.862,4.554,3.362,4.252,6.707-.312,3.419-2.245,5.419-5.468,5.656-.3.023-.594.039-1.042.068v9.759H236.54Zm2.8,9.895c2.625.07,3.763-1.185,3.7-3.94-.042-2.187-1.344-3.289-3.687-3.1Z" transform="translate(-174.949 -1.169)" fill="#fff"/><path d="M327.14,1.89h7.46a13.428,13.428,0,0,1,.1,2.651h-4.82V11.23h4.294v2.679h-4.265v7.713h4.9a12.009,12.009,0,0,1,.2,2.638H327.14Z" transform="translate(-241.958 -1.398)" fill="#fff"/><path d="M414.615,13.973v7.694h4.867a10.607,10.607,0,0,1,.143,2.656H411.85V1.93H419.3v2.6h-4.658v6.749h4.273v2.679Z" transform="translate(-304.611 -1.427)" fill="#fff"/><path d="M554.236,21.715V24.3H546.49V1.91h7.45V4.55h-4.729v6.7h4.3v2.672h-4.291v7.793Z" transform="translate(-404.193 -1.413)" fill="#fff"/><path d="M513.161,134.405a6.527,6.527,0,0,1,0,.667c-.151,1.07.508,2.343-1.042,3.031a4.568,4.568,0,0,1-4.687-.185,6.115,6.115,0,0,1-2.427-3.744,25.549,25.549,0,0,1,.19-14.5c.633-2,1.7-3.716,4.046-4.119a3.921,3.921,0,0,1,3.174.831c1.01.781.26,1.9.458,2.864-.182.016-.284.057-.336.023-2.776-1.823-4.276-1.315-5.031,1.95a28.9,28.9,0,0,0-.117,11.376c.615,3.588,2.554,4.216,5.77,1.8" transform="translate(-372.804 -85.424)" fill="#fff"/><path d="M374.638,24.443H371.93V2.05h6.51V4.63h-3.726v6.757h3.5v2.674h-3.578Z" transform="translate(-275.085 -1.516)" fill="#fff"/><path d="M241.277,119.316a2.414,2.414,0,0,1-.469-.167c-2.552-1.737-4.372-1.083-4.968,1.942a31.573,31.573,0,0,0-.013,11.754,5.543,5.543,0,0,0,.633,1.692,2.373,2.373,0,0,0,3.544.891c.466-.289.9-.635,1.328-.943.289.187.18.424.177.614-.018,1.161.365,2.445-1.208,3.044a4.55,4.55,0,0,1-4.46-.276,5.3,5.3,0,0,1-2.083-2.75,24.823,24.823,0,0,1,.055-16.18,5.125,5.125,0,0,1,2.744-3.156,3.984,3.984,0,0,1,4.179.479c1.065.786.26,1.979.542,3.054" transform="translate(-171.908 -85.351)" fill="#fff"/><path d="M380.834,139.495h-2.721V119.75H374.84v-2.63h9.2v2.471c-.974.3-2.026-.018-3.211.214Z" transform="translate(-277.238 -86.624)" fill="#fff"/><path d="M546.049,119.638H542.81V117.05h9.207v2.58h-3.205V139.42h-2.763Z" transform="translate(-401.471 -86.572)" fill="#fff"/><path d="M63.223,114.892A2.715,2.715,0,1,1,60.57,112a2.655,2.655,0,0,1,2.653,2.893" transform="translate(-42.749 -82.836)" fill="#ed3026"/><path d="M56.086,154.562a2.084,2.084,0,0,1-2.26,2.25,2.349,2.349,0,1,1,2.26-2.25" transform="translate(-38.169 -112.51)" fill="#ed3026"/></g></svg>