<svg xmlns="http://www.w3.org/2000/svg" xmlns:xlink="http://www.w3.org/1999/xlink" width="100.69" height="164.998" viewBox="0 0 100.69 164.998"><defs><clipPath id="a"><rect width="100.69" height="164.998" fill="#72bca3"/></clipPath></defs><g clip-path="url(#a)"><path d="M6.3,0H22.419c0,.816.012,1.331,0,1.845-.191,6.886-.357,13.772-.59,20.656-.113,3.33,1.988,5.614,3.688,8.072,1.023,1.48,2.7,2.689,1.064,4.76-.148.187.171.743.273,1.127a6.3,6.3,0,0,1,.3,2c1.782,1.467,2.755,4.075,5.465,4.664.558.121.989.966,1.418,1.524,1.513,1.966,3.067,3.907,4.476,5.947,1.187,1.718,2.195,3.561,3.289,5.361l2.043-.1c.43,4.024,3.394.942,5.163,1.988a11.892,11.892,0,0,1-.259,2.262c-.683,2.271-1.571,4.484-2.186,6.772a11.458,11.458,0,0,0,.334,7.606c.434,1.027.763,1.837-.826,2.22-1.093.263-1.259,1.24-.969,2.322a2.691,2.691,0,0,1,.037,1.839c-.878,1.4-.308,2.143.875,2.867a29.033,29.033,0,0,1,2.348,1.781l5.893-5.194c2.43,1.649,3.131,4.373,3.532,7.115.407,2.786,1.956,4.884,3.58,6.962.81,1.036,1.626,1.807.519,3.21-.839,1.064.881,3.527,2.484,3.739,2.674.354,3.669,1.46,3.864,4.13.175,2.406.925,4.517,3.269,5.636.568-.8.972-1.981,1.708-2.248a6.326,6.326,0,0,1,3.275.138c1.5.33,2.879.812,3.676-1.181.122-.3,1.209-.3,1.851-.3,1.447-.008,2.894.077,4.341.1.291,0,.691-.239.858-.118,2.023,1.468,4.258-.532,6.254.606a8.8,8.8,0,0,1,.433-2.444,11.182,11.182,0,0,1,1.694-2.012,17.316,17.316,0,0,1,2.086,2.021,27.839,27.839,0,0,1,2.413,3.825,5.319,5.319,0,0,1,.6,2.48c-.412,15.314-.88,30.627-1.314,45.94-.064,2.246-.009,4.5-.009,7.086L1.938,162.291c0-.767-.015-1.4,0-2.023.331-12.406.561-24.816,1.08-37.214.113-2.691,1.225-5.349,1.955-8a2.719,2.719,0,0,0-1.644-2.639c-1-.326-2.561-.592-2.809-1.273-.583-1.6-.911-3.406.307-5.094,1.829-2.534,3.612-5.115,5.206-7.8A36.763,36.763,0,0,0,7.93,93.532c1.438-3.446,2.905-6.878,4.37-10.312a5.167,5.167,0,0,0-2.09-6.562c-3.22-1.909-4.4-4.769-4.4-8.4,0-1.165-.776-2.314-1.086-3.5A9.492,9.492,0,0,1,4.4,62.241c.032-2.072.194-4.142.253-6.214Q5.445,28.338,6.219.648A5.789,5.789,0,0,1,6.3,0" transform="translate(0)" fill="#72bca3"/></g></svg>