<svg xmlns="http://www.w3.org/2000/svg" xmlns:xlink="http://www.w3.org/1999/xlink" width="103.242" height="117.415" viewBox="0 0 103.242 117.415"><defs><clipPath id="a"><rect width="103.242" height="117.415" fill="#72bca3"/></clipPath></defs><g clip-path="url(#a)"><path d="M12.71,0c.212.582.863.437,1.38.452,5.807.167,11.627.19,17.42.5,22.345,1.208,44.706.361,67.059.415,2.313.006,2.315-.014,2.607,1.715a8.615,8.615,0,0,1,.174,1.255c.134,7.517.236,15.034.385,22.55.183,9.2.41,18.405.607,27.608q.451,21.052.9,42.1a6.366,6.366,0,0,1-.533,2.71c-.631,1.464-1.309,1.7-2.743.665-2.15-1.55-4.468-1.423-7.025-.827-1.448.338-1.71.969-1.5,1.986.826,3.937,1.346,7.912,2.518,11.806a8.1,8.1,0,0,1-.2,3.987c-.1.523-.5.641-1.053.276-.344-.226-.68-.46-1.009-.7Q46.556,83.844,1.4,51.2A2.792,2.792,0,0,1,.01,48.483C.847,36.69,1.62,24.893,2.411,13.1Q2.85,6.549,3.292,0Z" transform="translate(0.001)" fill="#72bca3"/></g></svg>