<svg xmlns="http://www.w3.org/2000/svg" xmlns:xlink="http://www.w3.org/1999/xlink" width="139.895" height="100.434" viewBox="0 0 139.895 100.434"><defs><clipPath id="a"><rect width="139.895" height="100.434" fill="#72bca3"/></clipPath></defs><g transform="translate(0)" clip-path="url(#a)"><path d="M126.03,100.434c0-1-.035-1.635.006-2.264.346-5.432.419-10.9,1.163-16.279.494-3.571,2.183-6.96,2.944-10.514,3.273-15.3,6.373-30.636,9.619-45.941.337-1.592.119-2.195-1.552-2.589Q99.042,13.6,59.91,4.206c-4.666-1.12-9.262-2.532-13.9-3.768A10.659,10.659,0,0,0,43.108,0c-2.061.04-2.768,1.435-1.615,3.158a10.431,10.431,0,0,0,1.878,2.035c1.757,1.514,2.188,2.885,1.3,5.056-.633,1.555-1.377,3.068-2.131,4.57a2.734,2.734,0,0,0,.451,3.494c1.221,1.216,1.183,2.312-.047,3.582-1.661,1.715-1.64,2.059.17,3.63a1.572,1.572,0,0,1,.274,2.507c-1.071,1.443-2,3-3.157,4.369-2.113,2.509-1.652,5.228-.628,7.871.442,1.142.407,1.621-.642,2.169a15.787,15.787,0,0,0-2.276,1.589c-1.743,1.348-3.492,2.691-5.186,4.1a1.644,1.644,0,0,1-2.467-.025,45.55,45.55,0,0,1-3.227-3.632c-.093-.116.423-.757.7-1.124a4.537,4.537,0,0,1,5.279-1.9c1.319.365,2.115-.431,2.838-1.486a2.011,2.011,0,0,0-.211-2.689c-1.218-1.457-.761-2.583.437-3.751,1.35-1.316,2.615-2.719,3.561-3.71-.991-1.72-1.791-3.057-2.536-4.423a9.018,9.018,0,0,1-.809-1.922A5.563,5.563,0,0,0,30.931,19.4c-2.217-.627-4.548-.888-6.716-1.636-6.25-2.156-12.476-4.4-17.207-9.39A35.232,35.232,0,0,0,3.943,5.819c-.528,1.931-.886,3.51-1.4,5.038a9.78,9.78,0,0,0,.143,6.793c.8,2.114,1.45,4.283,2.222,6.408A4.828,4.828,0,0,1,4.59,28.4,5.927,5.927,0,0,0,4.3,34.366a6.436,6.436,0,0,1,.361,5.372A3.5,3.5,0,0,0,5.8,43.814c.649.578,1.269,1.192,1.864,1.826s.47,1.17-.372,1.418c-.887.261-1.829.361-2.687.689-.589.225-1.483.692-1.508,1.1-.033.533.555,1.228,1.052,1.64.7.583,1.621.9,2.355,1.458,1.357,1.025,1.209,1.858-.236,2.785C5.527,55.2,4.477,55.88,4.4,56.566a3.888,3.888,0,0,1-2.927,3.607,1.254,1.254,0,0,0-.689.5c-.331.632-.911,1.412-.752,1.94A2.311,2.311,0,0,0,1.75,63.7c1.8.195,3.691.526,5.352-1.449-.008,2.3,1.155,2.582,2.781,2.655.55.024,1.47,1.221,1.486,1.9.045,1.893.925,2.16,2.55,2.091a5.9,5.9,0,0,1,5.962,5.484c.157,3.125.258,6.255.248,9.383a3.637,3.637,0,0,0,1.452,3.168c2.971,2.231,6.207,3.354,9.937,2.228,1.664-.5,3.3-1.1,4.995-1.489a4.623,4.623,0,0,1,2.7.036,76.143,76.143,0,0,1,8.518,4.248c2.282,1.382,6.292,1.664,8.554.31a3.713,3.713,0,0,1,2.513-.277A4.626,4.626,0,0,1,61,93.321a3.515,3.515,0,0,0,4.259.909c4.03-1.677,8.255-1.653,12.493-1.6,5.958.069,11.862.067,17.751,1.652,6.758,1.819,13.711,2.916,20.586,4.294,3.228.647,6.471,1.215,9.943,1.863" transform="translate(0 0)" fill="#72bca3"/><path d="M126.03,100.434c-3.472-.648-6.715-1.216-9.943-1.863-6.875-1.377-13.828-2.474-20.586-4.294-5.889-1.585-11.793-1.583-17.751-1.652-4.237-.049-8.463-.073-12.493,1.6A3.515,3.515,0,0,1,61,93.321a4.626,4.626,0,0,0-2.194-1.34,3.713,3.713,0,0,0-2.513.277c-2.263,1.354-6.272,1.072-8.554-.31A76.143,76.143,0,0,0,39.219,87.7a4.623,4.623,0,0,0-2.7-.036c-1.69.386-3.331.987-4.995,1.489-3.73,1.126-6.966,0-9.937-2.228a3.637,3.637,0,0,1-1.452-3.168c.009-3.128-.091-6.258-.248-9.383a5.9,5.9,0,0,0-5.962-5.484c-1.625.069-2.506-.2-2.55-2.091-.016-.679-.936-1.875-1.486-1.9-1.626-.073-2.789-.358-2.781-2.655C5.441,64.221,3.547,63.89,1.75,63.7A2.311,2.311,0,0,1,.027,62.617c-.159-.528.422-1.308.752-1.94a1.254,1.254,0,0,1,.689-.5A3.888,3.888,0,0,0,4.4,56.566c.081-.686,1.131-1.366,1.872-1.841,1.445-.927,1.592-1.76.236-2.785-.734-.554-1.651-.875-2.355-1.458-.5-.412-1.085-1.107-1.052-1.64.025-.4.919-.872,1.508-1.1.858-.327,1.8-.428,2.687-.689.842-.248.967-.784.372-1.418S6.447,44.392,5.8,43.814a3.5,3.5,0,0,1-1.132-4.075A6.436,6.436,0,0,0,4.3,34.366,5.927,5.927,0,0,1,4.59,28.4a4.828,4.828,0,0,0,.32-4.338c-.772-2.125-1.424-4.294-2.222-6.408a9.78,9.78,0,0,1-.143-6.793c.51-1.528.868-3.107,1.4-5.038A35.232,35.232,0,0,1,7.007,8.377c4.731,4.986,10.957,7.234,17.207,9.39,2.168.748,4.5,1.009,6.716,1.636a5.563,5.563,0,0,1,4.133,4.063,9.018,9.018,0,0,0,.809,1.922c.745,1.367,1.545,2.7,2.536,4.423-.946.991-2.21,2.394-3.561,3.71-1.2,1.168-1.655,2.294-.437,3.751a2.011,2.011,0,0,1,.211,2.689c-.723,1.054-1.519,1.85-2.838,1.486a4.537,4.537,0,0,0-5.279,1.9c-.273.368-.789,1.008-.7,1.124a45.55,45.55,0,0,0,3.227,3.632,1.644,1.644,0,0,0,2.467.025c1.694-1.409,3.442-2.752,5.186-4.1a15.787,15.787,0,0,1,2.276-1.589c1.05-.548,1.085-1.027.642-2.169-1.024-2.643-1.485-5.362.628-7.871,1.154-1.371,2.086-2.926,3.157-4.369a1.572,1.572,0,0,0-.274-2.507c-1.81-1.571-1.831-1.915-.17-3.63,1.23-1.27,1.268-2.366.047-3.582a2.734,2.734,0,0,1-.451-3.494c.754-1.5,1.5-3.015,2.131-4.57.884-2.171.453-3.541-1.3-5.056a10.431,10.431,0,0,1-1.878-2.035C40.34,1.437,41.047.042,43.108,0a10.659,10.659,0,0,1,2.9.437c4.64,1.236,9.235,2.648,13.9,3.768q39.131,9.394,78.3,18.641c1.671.395,1.89,1,1.552,2.589-3.246,15.305-6.346,30.641-9.619,45.941-.76,3.554-2.449,6.943-2.944,10.514-.744,5.377-.817,10.848-1.163,16.279-.04.629-.006,1.263-.006,2.264" transform="translate(0 0)" fill="#72bca3"/></g></svg>